<svg width="24" height="24" viewBox="0 0 15 16" fill="none" xmlns="http://www.w3.org/2000/svg">
<path d="M3.83997 14.9999C5.04395 14.9999 6.01997 14.0239 6.01997 12.8199C6.01997 11.6159 5.04395 10.6399 3.83997 10.6399C2.63599 10.6399 1.65997 11.6159 1.65997 12.8199C1.65997 14.0239 2.63599 14.9999 3.83997 14.9999Z" stroke="white" stroke-width="1.5" stroke-linecap="round" stroke-linejoin="round"/>
<path d="M14 11.3699V2.85993C14 1.04993 12.86 0.799932 11.71 1.10993L7.35996 2.29993C6.56996 2.51993 6.01996 3.13993 6.01996 4.04993V5.56995V6.58997V12.82" stroke="white" stroke-width="1.5" stroke-linecap="round" stroke-linejoin="round"/>
<path d="M11.82 13.5499C13.0239 13.5499 14 12.5739 14 11.3699C14 10.166 13.0239 9.18994 11.82 9.18994C10.616 9.18994 9.63995 10.166 9.63995 11.3699C9.63995 12.5739 10.616 13.5499 11.82 13.5499Z" stroke="white" stroke-width="1.5" stroke-linecap="round" stroke-linejoin="round"/>
<path d="M6.01996 6.59991L14 4.41992" stroke="black" stroke-width="1.5" stroke-linecap="round" stroke-linejoin="round"/>
</svg>




